<svg width="24" height="24" viewBox="0 0 24 24" fill="none" xmlns="http://www.w3.org/2000/svg">
<path d="M3.97852 6.30042H20.0215C20.6022 6.30062 21.0829 6.75206 21.1191 7.33167L21.8359 18.8063C21.9475 20.5909 20.5303 22.1002 18.7422 22.1002H5.25781C3.46967 22.1002 2.05252 20.5909 2.16406 18.8063L2.88086 7.33167C2.91708 6.75206 3.39782 6.30062 3.97852 6.30042Z" stroke="white" stroke-width="1.8"/>
<path d="M15.3 9.90002C15.3 11.7226 13.8226 13.2 12 13.2C10.1775 13.2 8.70001 11.7226 8.70001 9.90002" stroke="white" stroke-width="1.8" stroke-linecap="round"/>
<path d="M15.3 5.94995V4.29995C15.3 2.47741 13.8226 0.999952 12 0.999952C10.1775 0.999952 8.70001 2.47741 8.70001 4.29995V5.94995" stroke="white" stroke-width="1.8" stroke-linecap="round"/>
</svg>
