<svg width="24" height="24" viewBox="0 0 24 24" fill="none" xmlns="http://www.w3.org/2000/svg">
<path d="M14.0019 4.42615C15.8648 2.73233 18.2779 2.45884 20.0996 3.55408C22.0143 4.70614 23.0205 7.17187 22.4326 9.53845V9.53943C21.8746 11.7871 20.5094 13.6023 18.8505 15.3969C16.8957 17.5116 14.6308 19.2971 12.2539 21.0277C9.20069 18.7952 6.32524 16.5201 4.12104 13.5795L3.6767 12.9642L3.30463 12.4066C2.47636 11.102 1.93046 9.76791 1.90131 8.28748C1.85868 6.12543 3.04165 4.1874 4.7646 3.35681L4.93256 3.27966C6.74188 2.49845 9.00082 2.95325 10.6415 4.56091C10.9633 4.87639 11.2943 5.19442 11.664 5.5531L12.3144 6.18298L12.9404 5.52966C13.256 5.2004 13.4911 4.9299 13.7421 4.67615L14.0019 4.42615Z" stroke="#C4C4C4" stroke-width="1.8"/>
</svg>
