<svg width="24" height="24" viewBox="0 0 24 24" fill="none" xmlns="http://www.w3.org/2000/svg">
<path d="M12.0098 1.90039C17.6197 1.9004 22.1074 6.27581 22.1074 11.5869C22.1073 16.8967 17.6091 21.2734 11.998 21.2734C11.0657 21.2734 10.18 21.1544 9.32715 20.9277C9.19958 20.8938 9.06641 20.8881 8.9375 20.9111L8.81055 20.9443L5.64551 22.002L5.81055 19.748C5.83192 19.4541 5.70765 19.1678 5.47852 18.9824C3.2792 17.2034 1.90044 14.5525 1.90039 11.5869C1.90039 6.27642 6.38749 1.90039 12.0098 1.90039Z" stroke="white" stroke-width="1.8" stroke-linejoin="round"/>
<path d="M10.1498 8.79533C10.2222 8.80575 10.2825 8.81618 10.3548 8.82661C11.428 9.05603 12.5252 10.0363 13.3693 10.6203C13.8396 10.954 14.2375 10.9227 14.7078 10.6099C15.7086 9.92159 16.7456 9.2646 17.7705 8.58676C18.0478 8.39905 18.3372 8.20091 18.6748 8.45119C19.0486 8.72233 18.8195 9.01432 18.6266 9.28546C17.6137 10.6829 16.6129 12.0803 15.588 13.4672C14.8886 14.4266 13.8999 14.5622 12.8388 13.8844C12.1032 13.4047 11.3436 12.9562 10.6201 12.4557C10.1378 12.122 9.73984 12.1637 9.28163 12.4765C8.26876 13.1648 7.24382 13.8218 6.21889 14.4996C5.94156 14.6874 5.65216 14.8855 5.31454 14.6248C4.97691 14.3745 5.15778 14.0929 5.33865 13.8322C6.3877 12.3931 7.42469 10.954 8.47374 9.51488C8.82343 9.02475 9.47456 8.73276 10.1498 8.79533Z" fill="white"/>
</svg>
